<svg xmlns="http://www.w3.org/2000/svg" viewBox="0 0 1600 900">
<rect width="1600" height="900" fill="#FAF7EF"/>
<text x="110" y="130" fill="#0B1220" font-family="JetBrains Mono,monospace" font-size="26">PROCESS MAP</text>
<g font-family="Inter,Arial,sans-serif" font-weight="700" text-anchor="middle">
<rect x="120" y="260" width="280" height="150" rx="28" fill="#0B1220"/><text x="260" y="345" fill="#fff" font-size="32">Sales</text>
<rect x="500" y="260" width="280" height="150" rx="28" fill="#0A85FF"/><text x="640" y="345" fill="#fff" font-size="32">Handoff</text>
<rect x="880" y="260" width="280" height="150" rx="28" fill="#FF582E"/><text x="1020" y="345" fill="#fff" font-size="32">Engineering</text>
<rect x="1260" y="260" width="220" height="150" rx="28" fill="#0B1220"/><text x="1370" y="345" fill="#fff" font-size="32">Delivery</text>
</g>
<g stroke="#0B1220" stroke-width="8" fill="none" stroke-linecap="round"><path d="M405 335h75"/><path d="M785 335h75"/><path d="M1165 335h75"/></g>
<g fill="#0B1220"><path d="M465 320l25 15-25 15z"/><path d="M845 320l25 15-25 15z"/><path d="M1225 320l25 15-25 15z"/></g>
<text x="800" y="610" fill="#596372" font-family="Inter,Arial,sans-serif" font-size="30" text-anchor="middle">A visible handoff makes ownership and required information explicit.</text>
</svg>
